<?xml version="1.0" encoding="utf-8"?>
<!-- Generator: Adobe Illustrator 23.0.1, SVG Export Plug-In . SVG Version: 6.00 Build 0)  -->
<svg version="1.1" id="Ebene_1" xmlns="http://www.w3.org/2000/svg" xmlns:xlink="http://www.w3.org/1999/xlink" x="0px" y="0px"
	 width="866.9px" height="149.9px" viewBox="0 0 866.9 149.9" style="enable-background:new 0 0 866.9 149.9;" xml:space="preserve"
	>
<style type="text/css">
	.st0{fill:#FFFFFF;}
</style>
<g>
	<path class="st0" d="M226,27.4v87.9H15.5V27.4H226 M227,26.4H14.5v89.9H227V26.4L227,26.4z"/>
</g>
<g>
	<path class="st0" d="M61.2,78.4c-3,7.6-6.5,17.3-7.8,21.6c-0.2,0.2-0.8,0.4-1.3,0.4s-1.1-0.2-1.4-0.4c-0.9-3.3-2.1-7.4-3.5-10.9
		L34,54c-2.1-5.6-2.8-6.7-5.8-7.4l-1.8-0.4c-0.5-0.6-0.5-2.1,0.2-2.3c2.9,0.2,6.2,0.2,9.1,0.2c3.4,0,5.9-0.1,9.9-0.2
		c0.7,0.5,0.8,1.8,0.1,2.4l-1.9,0.5c-1.7,0.4-2.3,0.8-2.3,1.5s0.6,2.6,3.7,11.1l5.4,14.8c1.4,3.7,3.4,8.7,4.1,10.6
		c4.1-10.5,8.6-22,12.6-33.3c1.2-3.3,1-4-1.3-4.6l-2.2-0.6c-0.5-0.7-0.5-2,0.2-2.4c3.1,0.2,5.6,0.2,8.1,0.2c2.7,0,5.2-0.1,7.3-0.2
		c0.6,0.4,0.5,1.7,0.2,2.4l-1.9,0.4c-1.7,0.4-3.4,1-4.7,3.4c-2.1,4-4.3,9.6-7.7,18L61.2,78.4z"/>
	<path class="st0" d="M113.8,44.1c5,0,7.3-0.2,8.5-0.3c0.5,0.2,0.8,0.7,0.7,1.3c-1.8,1.9-7.4,11.1-11.5,18L99.3,83.4
		c-1.3,2-6,9.9-6,10.9c0,0.9,1.1,1.2,2.4,1.2c1.5,0.1,3.2,0.2,8.7,0.2c6.9,0,10.7-0.4,13-1.9c2.1-1.4,3.9-4.3,5.5-8.8
		c0.7-0.5,2.2-0.2,2.4,0.7c-0.7,5.5-2.3,11.6-3.6,13.6c-2-0.1-4.2-0.2-6.5-0.2c-2.3-0.1-4.7-0.1-7.5-0.1H88.1
		c-4.1,0-6.5,0.1-7.9,0.2c-0.4-0.2-0.6-0.7-0.5-1.2c1.1-1.6,5.3-7.4,8.6-12.9L105,57.5c3-5.1,5.2-8.7,5.2-9.5c0-0.6-1.1-0.6-2.6-0.6
		h-9.1c-5.7,0-9.3,0.7-11.1,2.8c-1.5,1.7-2.7,4.2-3.5,6.3c-0.8,0.6-2.1,0.2-2.4-0.6c1.1-4.8,2.4-9.4,3.2-14c0.3-0.3,1-0.3,1.3,0
		c0.5,1.9,2,2.1,7.9,2.1C93.9,44.1,113.8,44.1,113.8,44.1z"/>
	<path class="st0" d="M174.8,90.4c0,2.9,0.4,5.1,1.8,5.8c0.2,0.3,0.2,1-0.1,1.2c-0.8,0-2.2,0.2-3.6,0.7c-4.7,1.2-10.3,2.2-14.6,2.2
		c-9,0-17.5-2.7-23.2-9.2c-4.4-5.1-6.6-12.1-6.6-19.1s2.2-14.1,6.9-19.6c5.3-6.2,13.5-9.8,24-9.8c3.5,0,7.4,0.7,10,1.2
		c1.7,0.4,3.9,0.7,4.8,0.7c0.1,2.5,0.6,6.7,1,13.2c-0.4,0.8-2,0.9-2.4,0.2c-1.7-8.1-7-12.1-14.5-12.1c-13.2,0-19.6,10.6-19.6,24.7
		c0,6.7,1.4,13.8,5.4,19.1c4.1,5.3,10.1,7.1,14.5,7.1c3.6,0,5.8-0.7,6.7-1.9c0.5-0.7,0.7-2.2,0.7-5.2v-3c0-5.9-0.1-6.4-5.1-7.3
		l-2.7-0.5c-0.5-0.6-0.5-2,0.1-2.4c2.9,0.2,6.5,0.2,11.7,0.2c3.4,0,5.9-0.1,9.2-0.2c0.8,0.4,0.8,1.8,0.2,2.4L178,79
		c-2.8,0.4-3.2,1.2-3.2,6.2V90.4L174.8,90.4z"/>
</g>
<path class="st0" d="M266.4,90.8c-0.1,0.3-0.2,0.6-0.4,0.8c-0.2,0.2-0.4,0.4-0.7,0.5c-0.3,0.1-0.8,0.2-1.4,0.2s-1.4,0-2.3,0
	c-0.8,0-1.4,0-2,0c-0.5,0-1,0-1.4-0.1c-0.4,0-0.7-0.1-0.9-0.2s-0.4-0.2-0.6-0.3s-0.3-0.3-0.4-0.4c-0.1-0.2-0.2-0.4-0.2-0.6l-11-32.8
	c-0.2-0.7-0.4-1.2-0.4-1.6c0-0.4,0-0.7,0.3-0.9c0.2-0.2,0.6-0.3,1.2-0.4c0.6,0,1.4-0.1,2.4-0.1c0.9,0,1.6,0,2.1,0.1
	c0.5,0,0.9,0.1,1.1,0.2c0.3,0.1,0.5,0.2,0.6,0.4s0.2,0.4,0.3,0.7l9,28.6l0,0l8.8-28.4c0.1-0.3,0.2-0.6,0.3-0.8
	c0.1-0.2,0.3-0.4,0.6-0.5c0.3-0.1,0.7-0.2,1.2-0.2s1.2-0.1,2.1-0.1s1.6,0,2,0.1c0.5,0.1,0.8,0.2,1,0.4s0.2,0.5,0.2,0.9
	c-0.1,0.4-0.2,0.9-0.4,1.6L266.4,90.8z"/>
<path class="st0" d="M302.8,77.7c0,0.9-0.2,1.5-0.6,1.9s-0.9,0.6-1.6,0.6h-15.5c0,1.1,0.1,2.1,0.4,3s0.7,1.6,1.2,2.3
	c0.6,0.6,1.3,1.1,2.2,1.4c0.9,0.3,2,0.5,3.2,0.5c1.3,0,2.4-0.1,3.3-0.3c1-0.2,1.8-0.4,2.5-0.6s1.3-0.4,1.7-0.6
	c0.5-0.2,0.8-0.3,1.1-0.3c0.2,0,0.3,0,0.4,0.1s0.2,0.2,0.3,0.4c0.1,0.2,0.1,0.4,0.2,0.7c0,0.3,0,0.7,0,1.2c0,0.4,0,0.8,0,1.1
	c0,0.3,0,0.5-0.1,0.8c0,0.2-0.1,0.4-0.2,0.5s-0.2,0.3-0.3,0.4c-0.1,0.1-0.5,0.3-1,0.5s-1.3,0.5-2.1,0.7c-0.9,0.2-1.8,0.4-2.9,0.6
	s-2.3,0.2-3.5,0.2c-2.3,0-4.3-0.3-6-0.9s-3.1-1.4-4.3-2.6c-1.1-1.2-2-2.6-2.6-4.4s-0.8-3.9-0.8-6.2c0-2.3,0.3-4.3,0.9-6.1
	c0.6-1.8,1.5-3.4,2.6-4.6c1.1-1.3,2.5-2.2,4.1-2.9s3.4-1,5.5-1s4,0.3,5.5,0.9s2.8,1.5,3.7,2.6c1,1.1,1.7,2.4,2.1,4s0.7,3.2,0.7,5
	L302.8,77.7L302.8,77.7z M295.8,75.6c0.1-2-0.3-3.6-1.2-4.8c-0.9-1.2-2.2-1.7-4-1.7c-0.9,0-1.7,0.2-2.4,0.5
	c-0.7,0.3-1.2,0.8-1.7,1.4c-0.4,0.6-0.8,1.3-1,2.1s-0.4,1.6-0.4,2.5C285.1,75.6,295.8,75.6,295.8,75.6z"/>
<path class="st0" d="M325.1,68c0,0.7,0,1.2-0.1,1.7c0,0.4-0.1,0.8-0.2,1s-0.2,0.4-0.3,0.5c-0.1,0.1-0.3,0.1-0.5,0.1s-0.3,0-0.5-0.1
	s-0.4-0.1-0.6-0.2s-0.5-0.1-0.8-0.2s-0.6-0.1-0.9-0.1c-0.4,0-0.8,0.1-1.2,0.2c-0.4,0.2-0.8,0.4-1.2,0.8c-0.4,0.3-0.9,0.8-1.3,1.4
	c-0.5,0.6-1,1.3-1.5,2.1v15.9c0,0.2-0.1,0.4-0.2,0.5s-0.3,0.3-0.6,0.4s-0.6,0.2-1.1,0.2s-1,0.1-1.7,0.1s-1.3,0-1.7-0.1
	c-0.5,0-0.8-0.1-1.1-0.2s-0.5-0.2-0.6-0.4c-0.1-0.1-0.2-0.3-0.2-0.5V65.6c0-0.2,0-0.4,0.1-0.5s0.3-0.3,0.5-0.4s0.6-0.2,1-0.2
	s0.9-0.1,1.5-0.1s1.1,0,1.5,0.1c0.4,0,0.7,0.1,0.9,0.2c0.2,0.1,0.4,0.2,0.5,0.4c0.1,0.1,0.1,0.3,0.1,0.5v3.2c0.7-1,1.3-1.7,1.9-2.4
	c0.6-0.6,1.2-1.1,1.7-1.5s1.1-0.6,1.6-0.8s1.1-0.2,1.6-0.2c0.2,0,0.5,0,0.8,0s0.6,0.1,0.9,0.1c0.3,0.1,0.6,0.1,0.8,0.2
	c0.2,0.1,0.4,0.2,0.5,0.3c0.1,0.1,0.2,0.2,0.2,0.3c0,0.1,0.1,0.3,0.1,0.5s0.1,0.5,0.1,0.9C325.1,66.8,325.1,67.3,325.1,68z"/>
<path class="st0" d="M355.3,78.1c0,2.3-0.2,4.3-0.7,6.1c-0.5,1.8-1.2,3.4-2.1,4.6c-0.9,1.3-2.1,2.3-3.4,2.9c-1.4,0.7-2.9,1-4.7,1
	c-0.9,0-1.7-0.1-2.4-0.2c-0.7-0.2-1.5-0.4-2.1-0.8c-0.7-0.4-1.3-0.8-2-1.4s-1.3-1.2-2-2v2.8c0,0.2-0.1,0.4-0.2,0.5s-0.3,0.3-0.5,0.4
	s-0.6,0.2-1,0.2s-0.9,0.1-1.5,0.1s-1.1,0-1.5-0.1c-0.4,0-0.7-0.1-0.9-0.2s-0.4-0.2-0.5-0.4c-0.1-0.1-0.1-0.3-0.1-0.5V53.5
	c0-0.2,0.1-0.4,0.2-0.5c0.1-0.2,0.3-0.3,0.6-0.4c0.3-0.1,0.6-0.2,1.1-0.2c0.5-0.1,1-0.1,1.7-0.1s1.3,0,1.7,0.1
	c0.5,0.1,0.8,0.1,1.1,0.2c0.3,0.1,0.5,0.2,0.6,0.4s0.2,0.3,0.2,0.5v14.1c0.6-0.6,1.3-1.2,1.9-1.7s1.3-0.8,1.9-1.1
	c0.6-0.3,1.3-0.5,2-0.6s1.4-0.2,2.2-0.2c1.9,0,3.5,0.4,4.8,1.1c1.3,0.8,2.4,1.8,3.2,3s1.4,2.8,1.8,4.5
	C355.1,74.4,355.3,76.2,355.3,78.1z M347.8,78.6c0-1.1-0.1-2.1-0.2-3.1c-0.2-1-0.4-1.9-0.8-2.7c-0.4-0.8-0.9-1.4-1.6-1.9
	c-0.6-0.5-1.4-0.7-2.4-0.7c-0.5,0-0.9,0.1-1.4,0.2s-0.9,0.4-1.4,0.7c-0.5,0.3-1,0.7-1.5,1.3c-0.5,0.5-1.1,1.2-1.6,1.9v8.5
	c1,1.3,2,2.3,2.9,3s1.9,1,2.9,1c0.9,0,1.7-0.2,2.4-0.7c0.6-0.5,1.2-1.1,1.6-1.9s0.7-1.6,0.9-2.6C347.7,80.5,347.8,79.6,347.8,78.6z"
	/>
<path class="st0" d="M385.2,91.2c0,0.2,0,0.4-0.1,0.5s-0.3,0.3-0.5,0.4s-0.6,0.2-0.9,0.2s-0.9,0.1-1.5,0.1s-1.1,0-1.5-0.1
	s-0.7-0.1-0.9-0.2c-0.2-0.1-0.4-0.2-0.5-0.4c-0.1-0.1-0.1-0.3-0.1-0.5v-2.9c-1.4,1.5-2.8,2.7-4.3,3.4c-1.5,0.8-3,1.1-4.5,1.1
	c-1.8,0-3.2-0.3-4.4-0.9c-1.2-0.6-2.2-1.4-2.9-2.3c-0.7-1-1.3-2.1-1.6-3.4c-0.3-1.3-0.5-2.9-0.5-4.9V65.6c0-0.2,0.1-0.4,0.2-0.5
	s0.3-0.3,0.6-0.4s0.6-0.2,1.1-0.2s1-0.1,1.7-0.1s1.3,0,1.7,0.1c0.5,0,0.8,0.1,1.1,0.2c0.3,0.1,0.5,0.2,0.6,0.4
	c0.1,0.1,0.2,0.3,0.2,0.5V80c0,1.3,0.1,2.4,0.3,3.1c0.2,0.7,0.4,1.3,0.8,1.8s0.8,0.9,1.3,1.2c0.5,0.3,1.2,0.4,1.9,0.4
	c0.9,0,1.8-0.3,2.8-1c0.9-0.7,1.9-1.6,3-2.9v-17c0-0.2,0.1-0.4,0.2-0.5s0.3-0.3,0.6-0.4c0.3-0.1,0.6-0.2,1.1-0.2s1-0.1,1.7-0.1
	s1.3,0,1.7,0.1c0.5,0,0.8,0.1,1.1,0.2c0.3,0.1,0.5,0.2,0.6,0.4c0.1,0.1,0.2,0.3,0.2,0.5L385.2,91.2L385.2,91.2z"/>
<path class="st0" d="M416.9,91.2c0,0.2-0.1,0.4-0.2,0.5s-0.3,0.3-0.6,0.4c-0.3,0.1-0.6,0.2-1.1,0.2s-1,0.1-1.7,0.1s-1.3,0-1.8-0.1
	c-0.5,0-0.8-0.1-1.1-0.2c-0.3-0.1-0.5-0.2-0.6-0.4s-0.2-0.3-0.2-0.5V76.6c0-1.2-0.1-2.2-0.3-2.9c-0.2-0.7-0.4-1.3-0.8-1.8
	c-0.3-0.5-0.8-0.9-1.3-1.2c-0.5-0.3-1.2-0.4-1.9-0.4c-0.9,0-1.8,0.3-2.8,1c-0.9,0.7-1.9,1.6-2.9,2.9v17c0,0.2-0.1,0.4-0.2,0.5
	s-0.3,0.3-0.6,0.4s-0.6,0.2-1.1,0.2s-1,0.1-1.7,0.1s-1.3,0-1.7-0.1c-0.5,0-0.8-0.1-1.1-0.2s-0.5-0.2-0.6-0.4
	c-0.1-0.1-0.2-0.3-0.2-0.5V65.6c0-0.2,0-0.4,0.1-0.5s0.3-0.3,0.5-0.4s0.6-0.2,1-0.2s0.9-0.1,1.5-0.1s1.1,0,1.5,0.1
	c0.4,0,0.7,0.1,0.9,0.2c0.2,0.1,0.4,0.2,0.5,0.4c0.1,0.1,0.1,0.3,0.1,0.5v2.9c1.4-1.5,2.8-2.7,4.3-3.4c1.5-0.8,3-1.1,4.6-1.1
	c1.7,0,3.2,0.3,4.4,0.9c1.2,0.6,2.2,1.3,2.9,2.3c0.7,1,1.3,2.1,1.6,3.4c0.3,1.3,0.5,2.9,0.5,4.8L416.9,91.2L416.9,91.2z"/>
<path class="st0" d="M448.1,91.2c0,0.2,0,0.4-0.1,0.5s-0.3,0.3-0.5,0.4s-0.5,0.2-0.9,0.2s-0.9,0.1-1.4,0.1c-0.6,0-1.1,0-1.5-0.1
	c-0.4,0-0.7-0.1-0.9-0.2s-0.4-0.2-0.5-0.4c-0.1-0.1-0.2-0.3-0.2-0.5v-2.8c-1.3,1.4-2.7,2.5-4.1,3.3s-3,1.2-4.8,1.2
	c-1.9,0-3.6-0.4-4.9-1.1c-1.3-0.8-2.4-1.8-3.3-3c-0.8-1.3-1.5-2.8-1.8-4.5s-0.6-3.5-0.6-5.4c0-2.3,0.2-4.3,0.7-6.1
	c0.5-1.8,1.2-3.4,2.1-4.6c0.9-1.3,2.1-2.3,3.5-2.9c1.4-0.7,3-1,4.8-1c1.4,0,2.7,0.3,3.9,0.9s2.3,1.4,3.5,2.6V53.6
	c0-0.2,0.1-0.4,0.2-0.5c0.1-0.2,0.3-0.3,0.6-0.4c0.3-0.1,0.6-0.2,1.1-0.2s1-0.1,1.7-0.1s1.3,0,1.7,0.1c0.5,0.1,0.8,0.1,1.1,0.2
	c0.3,0.1,0.5,0.2,0.6,0.4s0.2,0.3,0.2,0.5L448.1,91.2L448.1,91.2z M441,74.1c-1-1.3-2-2.3-3-3c-0.9-0.7-1.9-1-3-1
	c-0.9,0-1.7,0.2-2.4,0.7c-0.7,0.5-1.2,1.1-1.6,1.9s-0.7,1.7-0.9,2.6c-0.2,1-0.3,2-0.3,3c0,1.1,0.1,2.1,0.3,3.1
	c0.2,1,0.5,1.9,0.8,2.7c0.4,0.8,0.9,1.4,1.6,1.9c0.6,0.5,1.5,0.7,2.5,0.7c0.5,0,1-0.1,1.4-0.2c0.5-0.1,0.9-0.4,1.4-0.7
	c0.5-0.3,1-0.7,1.5-1.3c0.5-0.5,1.1-1.2,1.7-1.9V74.1z"/>
<path class="st0" d="M473.2,89.2c0,0.6,0,1-0.1,1.4s-0.1,0.7-0.2,0.9c-0.1,0.2-0.2,0.4-0.4,0.5c-0.2,0.1-0.3,0.1-0.5,0.1h-16.7
	c-0.5,0-0.9-0.2-1.2-0.5s-0.4-0.9-0.4-1.7v-1.3c0-0.3,0-0.7,0-0.9c0-0.3,0.1-0.5,0.2-0.8s0.2-0.5,0.3-0.8c0.1-0.3,0.3-0.6,0.6-0.9
	l9.6-14.8h-9c-0.4,0-0.7-0.2-0.9-0.7c-0.2-0.5-0.3-1.2-0.3-2.2c0-0.6,0-1,0.1-1.4s0.1-0.7,0.2-0.9c0.1-0.2,0.2-0.4,0.4-0.5
	c0.2-0.1,0.3-0.1,0.5-0.1H471c0.3,0,0.5,0,0.7,0.1s0.3,0.2,0.5,0.3c0.1,0.2,0.2,0.4,0.3,0.6c0.1,0.3,0.1,0.6,0.1,1V68
	c0,0.4,0,0.7-0.1,1c0,0.3-0.1,0.6-0.2,0.8c-0.1,0.3-0.2,0.5-0.3,0.8c-0.1,0.3-0.3,0.6-0.5,0.9L462,86.4h10c0.2,0,0.3,0,0.5,0.1
	s0.3,0.2,0.4,0.4c0.1,0.2,0.2,0.5,0.2,0.9C473.2,88.2,473.2,88.6,473.2,89.2z"/>
<path class="st0" d="M501.2,77.7c0,0.9-0.2,1.5-0.6,1.9s-0.9,0.6-1.6,0.6h-15.5c0,1.1,0.1,2.1,0.4,3s0.7,1.6,1.2,2.3
	c0.6,0.6,1.3,1.1,2.2,1.4c0.9,0.3,2,0.5,3.2,0.5c1.3,0,2.4-0.1,3.3-0.3c1-0.2,1.8-0.4,2.5-0.6s1.3-0.4,1.7-0.6
	c0.5-0.2,0.8-0.3,1.1-0.3c0.2,0,0.3,0,0.4,0.1s0.2,0.2,0.3,0.4c0.1,0.2,0.1,0.4,0.2,0.7c0,0.3,0,0.7,0,1.2c0,0.4,0,0.8,0,1.1
	c0,0.3,0,0.5-0.1,0.8c0,0.2-0.1,0.4-0.2,0.5s-0.2,0.3-0.3,0.4c-0.1,0.1-0.5,0.3-1,0.5s-1.3,0.5-2.1,0.7c-0.9,0.2-1.8,0.4-2.9,0.6
	s-2.3,0.2-3.5,0.2c-2.3,0-4.3-0.3-6-0.9s-3.1-1.4-4.3-2.6c-1.1-1.2-2-2.6-2.6-4.4s-0.8-3.9-0.8-6.2c0-2.3,0.3-4.3,0.9-6.1
	c0.6-1.8,1.5-3.4,2.6-4.6c1.1-1.3,2.5-2.2,4.1-2.9s3.4-1,5.5-1s4,0.3,5.5,0.9s2.8,1.5,3.7,2.6c1,1.1,1.7,2.4,2.1,4s0.7,3.2,0.7,5
	L501.2,77.7L501.2,77.7z M494.2,75.6c0.1-2-0.3-3.6-1.2-4.8c-0.9-1.2-2.2-1.7-4-1.7c-0.9,0-1.7,0.2-2.4,0.5
	c-0.7,0.3-1.2,0.8-1.7,1.4c-0.4,0.6-0.8,1.3-1,2.1c-0.2,0.8-0.4,1.6-0.4,2.5C483.4,75.6,494.2,75.6,494.2,75.6z"/>
<path class="st0" d="M531.5,91.2c0,0.2-0.1,0.4-0.2,0.5s-0.3,0.3-0.6,0.4s-0.6,0.2-1.1,0.2s-1,0.1-1.7,0.1s-1.3,0-1.8-0.1
	c-0.5,0-0.8-0.1-1.1-0.2s-0.5-0.2-0.6-0.4c-0.1-0.2-0.2-0.3-0.2-0.5V76.6c0-1.2-0.1-2.2-0.3-2.9c-0.2-0.7-0.4-1.3-0.8-1.8
	c-0.3-0.5-0.8-0.9-1.3-1.2c-0.5-0.3-1.2-0.4-1.9-0.4c-0.9,0-1.8,0.3-2.8,1c-0.9,0.7-1.9,1.6-2.9,2.9v17c0,0.2-0.1,0.4-0.2,0.5
	c-0.1,0.1-0.3,0.3-0.6,0.4s-0.6,0.2-1.1,0.2s-1,0.1-1.7,0.1s-1.3,0-1.7-0.1c-0.5,0-0.8-0.1-1.1-0.2s-0.5-0.2-0.6-0.4
	c-0.1-0.1-0.2-0.3-0.2-0.5V65.6c0-0.2,0-0.4,0.1-0.5s0.3-0.3,0.5-0.4s0.6-0.2,1-0.2s0.9-0.1,1.5-0.1s1.1,0,1.5,0.1
	c0.4,0,0.7,0.1,0.9,0.2s0.4,0.2,0.5,0.4c0.1,0.1,0.1,0.3,0.1,0.5v2.9c1.4-1.5,2.8-2.7,4.3-3.4c1.5-0.8,3-1.1,4.6-1.1
	c1.7,0,3.2,0.3,4.4,0.9s2.2,1.3,2.9,2.3s1.3,2.1,1.6,3.4s0.5,2.9,0.5,4.8L531.5,91.2L531.5,91.2z"/>
<path class="st0" d="M553.1,88.7c0,0.8-0.1,1.5-0.2,1.9s-0.2,0.8-0.4,0.9c-0.2,0.2-0.4,0.3-0.8,0.5c-0.3,0.1-0.7,0.3-1.2,0.4
	s-0.9,0.2-1.5,0.2c-0.5,0.1-1.1,0.1-1.6,0.1c-1.4,0-2.7-0.2-3.7-0.5c-1-0.4-1.9-0.9-2.6-1.7c-0.7-0.8-1.2-1.7-1.5-2.8
	c-0.3-1.1-0.5-2.5-0.5-4.1V70.5H536c-0.4,0-0.6-0.2-0.8-0.7c-0.2-0.4-0.3-1.2-0.3-2.2c0-0.6,0-1,0.1-1.4c0-0.4,0.1-0.7,0.2-0.9
	s0.2-0.4,0.4-0.5c0.1-0.1,0.3-0.1,0.5-0.1h3V59c0-0.2,0.1-0.4,0.2-0.5c0.1-0.2,0.3-0.3,0.6-0.4c0.3-0.1,0.6-0.2,1.1-0.2
	s1-0.1,1.7-0.1s1.3,0,1.8,0.1c0.5,0,0.8,0.1,1.1,0.2c0.3,0.1,0.5,0.2,0.6,0.4s0.2,0.3,0.2,0.5v5.7h5.6c0.2,0,0.4,0,0.5,0.1
	s0.3,0.3,0.4,0.5s0.2,0.5,0.2,0.9s0.1,0.8,0.1,1.4c0,1-0.1,1.8-0.3,2.2c-0.2,0.4-0.5,0.7-0.8,0.7h-5.6v12c0,1.4,0.2,2.4,0.7,3.1
	c0.4,0.7,1.2,1,2.3,1c0.4,0,0.7,0,1-0.1s0.6-0.1,0.8-0.2s0.4-0.2,0.6-0.2c0.2-0.1,0.3-0.1,0.4-0.1c0.1,0,0.2,0,0.3,0.1
	s0.2,0.2,0.2,0.4c0.1,0.2,0.1,0.5,0.2,0.8C553.1,87.7,553.1,88.1,553.1,88.7z"/>
<path class="st0" d="M574.7,68c0,0.7,0,1.2-0.1,1.7c0,0.4-0.1,0.8-0.2,1c-0.1,0.2-0.2,0.4-0.3,0.5s-0.3,0.1-0.5,0.1s-0.3,0-0.5-0.1
	s-0.4-0.1-0.6-0.2c-0.2-0.1-0.5-0.1-0.8-0.2s-0.6-0.1-0.9-0.1c-0.4,0-0.8,0.1-1.2,0.2c-0.4,0.2-0.8,0.4-1.2,0.8
	c-0.4,0.3-0.9,0.8-1.3,1.4c-0.5,0.6-1,1.3-1.5,2.1v15.9c0,0.2-0.1,0.4-0.2,0.5s-0.3,0.3-0.6,0.4s-0.6,0.2-1.1,0.2s-1,0.1-1.7,0.1
	s-1.3,0-1.7-0.1c-0.5,0-0.8-0.1-1.1-0.2s-0.5-0.2-0.6-0.4c-0.1-0.1-0.2-0.3-0.2-0.5V65.6c0-0.2,0-0.4,0.1-0.5s0.3-0.3,0.5-0.4
	s0.6-0.2,1-0.2s0.9-0.1,1.5-0.1s1.1,0,1.5,0.1c0.4,0,0.7,0.1,0.9,0.2s0.4,0.2,0.5,0.4c0.1,0.1,0.1,0.3,0.1,0.5v3.2
	c0.7-1,1.3-1.7,1.9-2.4c0.6-0.6,1.2-1.1,1.7-1.5s1.1-0.6,1.6-0.8s1.1-0.2,1.6-0.2c0.2,0,0.5,0,0.8,0s0.6,0.1,0.9,0.1
	c0.3,0.1,0.6,0.1,0.8,0.2s0.4,0.2,0.5,0.3c0.1,0.1,0.2,0.2,0.2,0.3c0,0.1,0.1,0.3,0.1,0.5s0.1,0.5,0.1,0.9
	C574.7,66.8,574.7,67.3,574.7,68z"/>
<path class="st0" d="M599.6,91.3c0,0.3-0.1,0.5-0.3,0.6c-0.2,0.2-0.5,0.3-0.9,0.3c-0.4,0.1-1,0.1-1.8,0.1c-0.9,0-1.5,0-1.9-0.1
	s-0.7-0.2-0.8-0.3c-0.2-0.2-0.2-0.4-0.2-0.6v-2c-1,1.1-2.2,2-3.6,2.6c-1.3,0.6-2.8,0.9-4.5,0.9c-1.4,0-2.6-0.2-3.7-0.5
	c-1.1-0.4-2.1-0.9-2.9-1.6c-0.8-0.7-1.5-1.6-1.9-2.6c-0.5-1-0.7-2.2-0.7-3.6c0-1.5,0.3-2.8,0.9-3.9c0.6-1.1,1.4-2,2.6-2.7
	c1.2-0.7,2.6-1.2,4.3-1.6c1.7-0.3,3.7-0.5,6-0.5h2.5v-1.5c0-0.8-0.1-1.5-0.2-2.1c-0.2-0.6-0.4-1.1-0.8-1.5c-0.4-0.4-0.9-0.7-1.5-0.9
	c-0.6-0.2-1.4-0.3-2.3-0.3c-1.2,0-2.3,0.1-3.2,0.4s-1.8,0.6-2.5,0.9s-1.3,0.6-1.8,0.9s-0.9,0.4-1.2,0.4c-0.2,0-0.4-0.1-0.6-0.2
	c-0.2-0.1-0.3-0.3-0.4-0.6c-0.1-0.2-0.2-0.6-0.2-0.9c-0.1-0.4-0.1-0.8-0.1-1.2c0-0.6,0-1.1,0.1-1.4s0.3-0.7,0.5-0.9
	c0.3-0.3,0.7-0.6,1.4-0.9s1.5-0.6,2.3-0.9c0.9-0.3,1.9-0.5,2.9-0.7c1.1-0.2,2.2-0.3,3.3-0.3c2,0,3.7,0.2,5.1,0.6
	c1.4,0.4,2.6,1,3.5,1.8s1.6,1.9,2,3.1c0.4,1.3,0.6,2.8,0.6,4.5L599.6,91.3L599.6,91.3z M592.6,80.3h-2.7c-1.2,0-2.2,0.1-3,0.3
	c-0.8,0.2-1.5,0.4-2,0.8c-0.5,0.3-0.9,0.8-1.1,1.2c-0.2,0.5-0.4,1-0.4,1.7c0,1.1,0.3,1.9,1,2.5s1.6,0.9,2.8,0.9c1,0,1.9-0.3,2.8-0.8
	c0.8-0.5,1.7-1.3,2.6-2.3L592.6,80.3L592.6,80.3z"/>
<path class="st0" d="M614,91.2c0,0.2-0.1,0.4-0.2,0.5s-0.3,0.3-0.6,0.4s-0.6,0.2-1.1,0.2s-1,0.1-1.7,0.1s-1.3,0-1.7-0.1
	c-0.5,0-0.8-0.1-1.1-0.2s-0.5-0.2-0.6-0.4c-0.1-0.1-0.2-0.3-0.2-0.5V53.5c0-0.2,0.1-0.4,0.2-0.5c0.1-0.2,0.3-0.3,0.6-0.4
	c0.3-0.1,0.6-0.2,1.1-0.2c0.5-0.1,1-0.1,1.7-0.1s1.3,0,1.7,0.1c0.5,0.1,0.8,0.1,1.1,0.2c0.3,0.1,0.5,0.2,0.6,0.4s0.2,0.3,0.2,0.5
	V91.2z"/>
<path class="st0" d="M644.8,77.7c0,0.9-0.2,1.5-0.6,1.9c-0.4,0.4-0.9,0.6-1.6,0.6H627c0,1.1,0.1,2.1,0.4,3s0.7,1.6,1.2,2.3
	c0.6,0.6,1.3,1.1,2.2,1.4s2,0.5,3.2,0.5c1.3,0,2.4-0.1,3.3-0.3c1-0.2,1.8-0.4,2.5-0.6s1.3-0.4,1.7-0.6c0.5-0.2,0.8-0.3,1.1-0.3
	c0.2,0,0.3,0,0.4,0.1c0.1,0.1,0.2,0.2,0.3,0.4c0.1,0.2,0.1,0.4,0.2,0.7c0,0.3,0,0.7,0,1.2c0,0.4,0,0.8,0,1.1c0,0.3,0,0.5-0.1,0.8
	c0,0.2-0.1,0.4-0.2,0.5s-0.2,0.3-0.3,0.4s-0.5,0.3-1,0.5s-1.3,0.5-2.1,0.7c-0.9,0.2-1.8,0.4-2.9,0.6c-1.1,0.2-2.3,0.2-3.5,0.2
	c-2.3,0-4.3-0.3-6-0.9s-3.1-1.4-4.3-2.6c-1.1-1.2-2-2.6-2.6-4.4s-0.8-3.9-0.8-6.2c0-2.3,0.3-4.3,0.9-6.1c0.6-1.8,1.5-3.4,2.6-4.6
	c1.1-1.3,2.5-2.2,4.1-2.9s3.4-1,5.5-1s4,0.3,5.5,0.9s2.8,1.5,3.7,2.6c1,1.1,1.7,2.4,2.1,4s0.7,3.2,0.7,5L644.8,77.7L644.8,77.7z
	 M637.8,75.6c0.1-2-0.3-3.6-1.2-4.8c-0.9-1.2-2.2-1.7-4-1.7c-0.9,0-1.7,0.2-2.4,0.5s-1.2,0.8-1.7,1.4c-0.4,0.6-0.8,1.3-1,2.1
	c-0.2,0.8-0.4,1.6-0.4,2.5C627,75.6,637.8,75.6,637.8,75.6z"/>
<path class="st0" d="M691.9,92.5c0,0.2,0,0.4-0.1,0.5s-0.3,0.3-0.5,0.4s-0.5,0.2-0.9,0.2s-0.9,0.1-1.4,0.1c-0.6,0-1.1,0-1.5-0.1
	c-0.4,0-0.7-0.1-0.9-0.2s-0.4-0.2-0.5-0.4c-0.1-0.1-0.2-0.3-0.2-0.5v-2.8c-1.3,1.4-2.7,2.5-4.1,3.3c-1.4,0.8-3,1.2-4.8,1.2
	c-1.9,0-3.6-0.4-4.9-1.1c-1.3-0.8-2.4-1.8-3.3-3c-0.8-1.3-1.5-2.8-1.8-4.5s-0.6-3.5-0.6-5.4c0-2.3,0.2-4.3,0.7-6.1
	c0.5-1.8,1.2-3.4,2.1-4.6c0.9-1.3,2.1-2.3,3.5-2.9c1.4-0.7,3-1,4.8-1c1.4,0,2.7,0.3,3.9,0.9s2.3,1.4,3.5,2.6V54.9
	c0-0.2,0.1-0.4,0.2-0.5c0.1-0.2,0.3-0.3,0.6-0.4c0.3-0.1,0.6-0.2,1.1-0.2c0.5-0.1,1-0.1,1.7-0.1s1.3,0,1.7,0.1s0.8,0.1,1.1,0.2
	c0.3,0.1,0.5,0.2,0.6,0.4s0.2,0.3,0.2,0.5L691.9,92.5L691.9,92.5z M684.8,75.4c-1-1.3-2-2.3-3-3c-0.9-0.7-1.9-1-3-1
	c-0.9,0-1.7,0.2-2.4,0.7s-1.2,1.1-1.6,1.9c-0.4,0.8-0.7,1.7-0.9,2.6c-0.2,1-0.3,2-0.3,3c0,1.1,0.1,2.1,0.3,3.1s0.5,1.9,0.8,2.7
	c0.4,0.8,0.9,1.4,1.6,1.9c0.6,0.5,1.5,0.7,2.5,0.7c0.5,0,1-0.1,1.4-0.2c0.5-0.1,0.9-0.4,1.4-0.7c0.5-0.3,1-0.7,1.5-1.3
	c0.5-0.5,1.1-1.2,1.7-1.9V75.4z"/>
<path class="st0" d="M722.8,78.9c0,0.9-0.2,1.5-0.6,1.9c-0.4,0.4-0.9,0.6-1.6,0.6H705c0,1.1,0.1,2.1,0.4,3c0.3,0.9,0.7,1.6,1.2,2.3
	c0.6,0.6,1.3,1.1,2.2,1.4s2,0.5,3.2,0.5c1.3,0,2.4-0.1,3.3-0.3c1-0.2,1.8-0.4,2.5-0.6s1.3-0.4,1.7-0.6c0.5-0.2,0.8-0.3,1.1-0.3
	c0.2,0,0.3,0,0.4,0.1c0.1,0.1,0.2,0.2,0.3,0.4c0.1,0.2,0.1,0.4,0.2,0.7c0,0.3,0,0.7,0,1.2c0,0.4,0,0.8,0,1.1c0,0.3,0,0.5-0.1,0.8
	c0,0.2-0.1,0.4-0.2,0.5c-0.1,0.1-0.2,0.3-0.3,0.4s-0.5,0.3-1,0.5c-0.6,0.2-1.3,0.5-2.1,0.7c-0.9,0.2-1.8,0.4-2.9,0.6
	c-1.1,0.2-2.3,0.2-3.5,0.2c-2.3,0-4.3-0.3-6-0.9s-3.1-1.4-4.3-2.6s-2-2.6-2.6-4.4s-0.8-3.9-0.8-6.2c0-2.3,0.3-4.3,0.9-6.1
	s1.5-3.4,2.6-4.6c1.1-1.3,2.5-2.2,4.1-2.9c1.6-0.7,3.4-1,5.5-1s4,0.3,5.5,0.9s2.8,1.5,3.7,2.6c1,1.1,1.7,2.4,2.1,4
	c0.5,1.5,0.7,3.2,0.7,5L722.8,78.9L722.8,78.9z M715.8,76.9c0.1-2-0.3-3.6-1.2-4.8c-0.9-1.2-2.2-1.7-4-1.7c-0.9,0-1.7,0.2-2.4,0.5
	s-1.2,0.8-1.7,1.4s-0.8,1.3-1,2.1c-0.2,0.8-0.4,1.6-0.4,2.5H715.8L715.8,76.9z"/>
<path class="st0" d="M746.6,85.2c0,1.4-0.3,2.7-0.8,3.8c-0.5,1.1-1.3,2-2.3,2.8s-2.2,1.3-3.5,1.7c-1.4,0.4-2.8,0.6-4.4,0.6
	c-1,0-1.9-0.1-2.7-0.2c-0.9-0.1-1.6-0.3-2.3-0.5s-1.3-0.4-1.7-0.7s-0.8-0.4-1-0.6s-0.4-0.5-0.5-0.9s-0.2-1.1-0.2-1.9
	c0-0.6,0-1,0.1-1.3s0.1-0.6,0.2-0.8s0.2-0.3,0.3-0.4s0.3-0.1,0.4-0.1c0.2,0,0.5,0.1,0.9,0.4c0.4,0.2,0.9,0.5,1.5,0.8
	s1.3,0.6,2.1,0.8s1.7,0.4,2.8,0.4c0.6,0,1.2-0.1,1.7-0.2s0.9-0.3,1.3-0.6s0.7-0.6,0.8-0.9c0.2-0.4,0.3-0.8,0.3-1.3
	c0-0.6-0.2-1.1-0.5-1.5c-0.4-0.4-0.8-0.8-1.4-1.1c-0.6-0.3-1.2-0.6-2-0.9s-1.5-0.6-2.3-0.9s-1.5-0.7-2.3-1.1c-0.7-0.4-1.4-0.9-2-1.5
	s-1-1.3-1.4-2.2c-0.4-0.9-0.5-1.9-0.5-3.1s0.2-2.3,0.7-3.4c0.5-1,1.2-1.9,2.1-2.6c0.9-0.7,2-1.3,3.3-1.7c1.3-0.4,2.7-0.6,4.3-0.6
	c0.8,0,1.6,0.1,2.3,0.2c0.8,0.1,1.4,0.3,2,0.4s1.1,0.4,1.5,0.6s0.7,0.4,0.9,0.5s0.3,0.3,0.4,0.4c0.1,0.1,0.1,0.3,0.2,0.5
	c0,0.2,0.1,0.4,0.1,0.7c0,0.3,0,0.7,0,1.1c0,0.5,0,0.9,0,1.3c0,0.3-0.1,0.6-0.1,0.8c-0.1,0.2-0.2,0.3-0.3,0.4s-0.2,0.1-0.4,0.1
	s-0.4-0.1-0.8-0.3c-0.4-0.2-0.8-0.4-1.4-0.6c-0.5-0.2-1.2-0.4-1.9-0.6s-1.5-0.3-2.4-0.3c-0.6,0-1.2,0.1-1.7,0.2s-0.9,0.3-1.2,0.6
	c-0.3,0.2-0.5,0.5-0.7,0.9c-0.2,0.3-0.2,0.7-0.2,1.1c0,0.6,0.2,1.1,0.5,1.5c0.4,0.4,0.8,0.8,1.4,1.1c0.6,0.3,1.3,0.6,2,0.9
	c0.8,0.3,1.5,0.6,2.3,0.9s1.5,0.7,2.3,1.1s1.4,0.9,2,1.5s1.1,1.3,1.4,2.2C746.5,83.1,746.6,84.1,746.6,85.2z"/>
<path class="st0" d="M795.4,62.1c0,0.6,0,1-0.1,1.4c0,0.4-0.1,0.7-0.2,1c-0.1,0.2-0.2,0.4-0.3,0.5s-0.3,0.1-0.4,0.1
	c-0.2,0-0.6-0.2-1.2-0.5c-0.6-0.3-1.3-0.7-2.2-1.1s-2-0.8-3.3-1.1s-2.7-0.5-4.4-0.5c-1.8,0-3.4,0.3-4.9,0.9
	c-1.4,0.6-2.7,1.5-3.7,2.6s-1.8,2.5-2.4,4.1c-0.6,1.6-0.8,3.4-0.8,5.3c0,2.1,0.3,4,0.8,5.6c0.6,1.6,1.4,3,2.4,4.1s2.2,1.9,3.6,2.5
	c1.4,0.6,3,0.8,4.7,0.8c0.8,0,1.7-0.1,2.5-0.3c0.8-0.2,1.6-0.5,2.3-0.9V78h-7c-0.3,0-0.6-0.2-0.8-0.6s-0.3-1.2-0.3-2.2
	c0-0.5,0-1,0.1-1.3c0-0.4,0.1-0.7,0.2-0.9c0.1-0.2,0.2-0.4,0.3-0.5s0.3-0.2,0.5-0.2h12.5c0.3,0,0.6,0.1,0.8,0.2s0.4,0.3,0.6,0.5
	s0.3,0.5,0.4,0.8s0.1,0.6,0.1,1v14.7c0,0.6-0.1,1.1-0.3,1.5s-0.6,0.8-1.2,1c-0.6,0.2-1.4,0.5-2.3,0.8c-0.9,0.3-1.9,0.5-2.8,0.7
	c-1,0.2-2,0.3-3,0.4s-2,0.1-3,0.1c-3,0-5.6-0.4-7.9-1.3c-2.3-0.9-4.3-2.1-5.9-3.7c-1.6-1.6-2.9-3.6-3.7-5.9s-1.3-4.9-1.3-7.9
	s0.5-5.8,1.4-8.2c0.9-2.4,2.2-4.5,3.9-6.2s3.7-3,6.1-3.9c2.4-0.9,5-1.3,7.9-1.3c1.6,0,3.1,0.1,4.4,0.3c1.3,0.2,2.5,0.5,3.4,0.8
	s1.8,0.7,2.4,1c0.6,0.4,1.1,0.7,1.4,0.9c0.3,0.3,0.4,0.6,0.6,1.1C795.4,60.5,795.4,61.2,795.4,62.1z"/>
<path class="st0" d="M829.9,82.3c0,1.3-0.2,2.5-0.5,3.6c-0.4,1.1-0.9,2-1.5,2.8s-1.4,1.5-2.3,2.1c-0.9,0.6-1.9,1.1-2.9,1.5
	c-1.1,0.4-2.2,0.7-3.4,0.8c-1.2,0.2-2.6,0.3-4,0.3h-9.8c-0.6,0-1.2-0.2-1.6-0.6c-0.4-0.4-0.6-1-0.6-1.8V58.8c0-0.8,0.2-1.4,0.6-1.8
	c0.4-0.4,1-0.6,1.6-0.6h9.3c2.3,0,4.2,0.2,5.8,0.6c1.6,0.4,2.9,1,4,1.7c1.1,0.8,1.9,1.8,2.5,2.9c0.6,1.2,0.9,2.6,0.9,4.2
	c0,0.9-0.1,1.7-0.3,2.5s-0.6,1.5-1,2.2c-0.4,0.6-1,1.2-1.6,1.7s-1.4,0.9-2.2,1.2c1,0.2,2,0.5,2.9,1s1.7,1.1,2.3,1.8s1.2,1.6,1.6,2.6
	C829.7,79.9,829.9,81.1,829.9,82.3z M820.2,66.7c0-0.7-0.1-1.4-0.3-2s-0.6-1.1-1-1.5c-0.5-0.4-1-0.7-1.7-0.9s-1.6-0.3-2.8-0.3h-3.8
	v9.6h4.2c1.1,0,2-0.1,2.6-0.4s1.2-0.6,1.6-1.1c0.4-0.4,0.7-1,1-1.6C820.1,68,820.2,67.4,820.2,66.7z M822.1,82.6
	c0-0.9-0.1-1.6-0.4-2.3c-0.3-0.7-0.7-1.2-1.3-1.7s-1.3-0.8-2.1-1.1s-2-0.4-3.3-0.4h-4.5v10.5h5.4c1,0,1.9-0.1,2.6-0.3
	c0.7-0.2,1.3-0.5,1.9-1c0.5-0.4,0.9-1,1.2-1.6S822.1,83.4,822.1,82.6z"/>
<path class="st0" d="M853.4,92.1c-0.1,0.3-0.2,0.6-0.4,0.8c-0.2,0.2-0.4,0.4-0.7,0.5s-0.8,0.2-1.4,0.2c-0.6,0-1.4,0-2.3,0
	c-0.8,0-1.4,0-2,0c-0.5,0-1,0-1.4-0.1s-0.7-0.1-0.9-0.2s-0.4-0.2-0.6-0.3s-0.3-0.3-0.4-0.4s-0.2-0.4-0.2-0.6l-11-32.8
	c-0.2-0.7-0.4-1.2-0.4-1.6s0-0.7,0.3-0.9s0.6-0.3,1.2-0.4c0.6,0,1.4-0.1,2.4-0.1c0.9,0,1.6,0,2.1,0.1s0.9,0.1,1.1,0.2
	c0.3,0.1,0.5,0.2,0.6,0.4s0.2,0.4,0.3,0.7l9,28.6l0,0l8.8-28.4c0.1-0.3,0.2-0.6,0.3-0.8s0.3-0.4,0.6-0.5s0.7-0.2,1.2-0.2
	s1.2-0.1,2.1-0.1c0.9,0,1.6,0,2,0.1c0.5,0.1,0.8,0.2,1,0.4s0.2,0.5,0.2,0.9c-0.1,0.4-0.2,0.9-0.4,1.6L853.4,92.1z"/>
<rect x="196.5" y="42.8" class="st0" width="9" height="57"/>
</svg>
